<?xml version="1.0" encoding="UTF-8" standalone="no"?>
<!-- Created with Inkscape (http://www.inkscape.org/) -->

<svg
   xmlns:dc="http://purl.org/dc/elements/1.1/"
   xmlns:cc="http://creativecommons.org/ns#"
   xmlns:rdf="http://www.w3.org/1999/02/22-rdf-syntax-ns#"
   xmlns:svg="http://www.w3.org/2000/svg"
   xmlns="http://www.w3.org/2000/svg"
   xmlns:sodipodi="http://sodipodi.sourceforge.net/DTD/sodipodi-0.dtd"
   xmlns:inkscape="http://www.inkscape.org/namespaces/inkscape"
   width="64"
   height="64"
   id="svg3088"
   version="1.1"
   inkscape:version="0.48.3.1 r9886"
   sodipodi:docname="Icon.svg"
   inkscape:export-filename="C:\Users\Johnny Lau\Pictures\PiggyDB\Icon.png"
   inkscape:export-xdpi="90"
   inkscape:export-ydpi="90">
  <defs
     id="defs3090" />
  <sodipodi:namedview
     id="base"
     pagecolor="#ffffff"
     bordercolor="#666666"
     borderopacity="1.0"
     inkscape:pageopacity="0.0"
     inkscape:pageshadow="2"
     inkscape:zoom="5.6"
     inkscape:cx="70.534692"
     inkscape:cy="22.182"
     inkscape:document-units="px"
     inkscape:current-layer="layer1"
     showgrid="false"
     inkscape:window-width="1920"
     inkscape:window-height="1034"
     inkscape:window-x="-8"
     inkscape:window-y="-8"
     inkscape:window-maximized="1" />
  <metadata
     id="metadata3093">
    <rdf:RDF>
      <cc:Work
         rdf:about="">
        <dc:format>image/svg+xml</dc:format>
        <dc:type
           rdf:resource="http://purl.org/dc/dcmitype/StillImage" />
        <dc:title></dc:title>
      </cc:Work>
    </rdf:RDF>
  </metadata>
  <g
     inkscape:label="Layer 1"
     inkscape:groupmode="layer"
     id="layer1"
     transform="translate(0,-988.36218)">
    <path
       transform="matrix(-2.0008843,1.2653416,-1.150466,-1.7636511,436.31586,970.52366)"
       sodipodi:end="3.1191245"
       sodipodi:start="0"
       d="m 155.89285,95.531822 a 2.3660715,2.3660715 0 0 1 -4.73155,0.05316 l 2.36548,-0.05316 z"
       sodipodi:ry="2.3660715"
       sodipodi:rx="2.3660715"
       sodipodi:cy="95.531822"
       sodipodi:cx="153.52678"
       id="path3787"
       style="fill:#e07faa;fill-opacity:1;stroke:none"
       sodipodi:type="arc"
       inkscape:export-filename="C:\Users\Johnny Lau\Desktop\portforwarding.png"
       inkscape:export-xdpi="90"
       inkscape:export-ydpi="90" />
    <path
       sodipodi:type="arc"
       style="fill:#e07faa;fill-opacity:1;stroke:none"
       id="path3785"
       sodipodi:cx="153.52678"
       sodipodi:cy="95.531822"
       sodipodi:rx="2.3660715"
       sodipodi:ry="2.3660715"
       d="m 155.89285,95.531822 a 2.3660715,2.3660715 0 0 1 -4.73155,0.05316 l 2.36548,-0.05316 z"
       sodipodi:start="0"
       sodipodi:end="3.1191245"
       transform="matrix(-0.19024686,2.6520234,-2.3160525,0.0212489,256.58997,608.11385)"
       inkscape:export-filename="C:\Users\Johnny Lau\Desktop\portforwarding.png"
       inkscape:export-xdpi="90"
       inkscape:export-ydpi="90" />
    <path
       transform="matrix(2.3612689,1.273202,-1.121504,2.6637727,-233.45613,593.9125)"
       sodipodi:end="3.1191245"
       sodipodi:start="0"
       d="m 155.89285,95.531822 a 2.3660715,2.3660715 0 0 1 -4.73155,0.05316 l 2.36548,-0.05316 z"
       sodipodi:ry="2.3660715"
       sodipodi:rx="2.3660715"
       sodipodi:cy="95.531822"
       sodipodi:cx="153.52678"
       id="path3783"
       style="fill:#e07faa;fill-opacity:1;stroke:none"
       sodipodi:type="arc"
       inkscape:export-filename="C:\Users\Johnny Lau\Desktop\portforwarding.png"
       inkscape:export-xdpi="90"
       inkscape:export-ydpi="90" />
    <path
       sodipodi:type="arc"
       style="fill:#e07faa;fill-opacity:1;stroke:none"
       id="path3781"
       sodipodi:cx="153.52678"
       sodipodi:cy="95.531822"
       sodipodi:rx="2.3660715"
       sodipodi:ry="2.3660715"
       d="m 155.89285,95.531822 a 2.3660715,2.3660715 0 0 1 -4.73155,0.05316 l 2.36548,-0.05316 z"
       sodipodi:start="0"
       sodipodi:end="3.1191245"
       transform="matrix(1.29688,-2.3483474,2.6523616,1.1482315,-395.84822,1281.7906)"
       inkscape:export-filename="C:\Users\Johnny Lau\Desktop\portforwarding.png"
       inkscape:export-xdpi="90"
       inkscape:export-ydpi="90" />
    <path
       sodipodi:type="arc"
       style="fill:#fecbcb;fill-opacity:1;fill-rule:nonzero;stroke:none"
       id="path3009"
       sodipodi:cx="127.32143"
       sodipodi:cy="88.701469"
       sodipodi:rx="13.303572"
       sodipodi:ry="13.303572"
       d="m 140.625,88.701469 a 13.303572,13.303572 0 1 1 -26.60715,0 13.303572,13.303572 0 1 1 26.60715,0 z"
       transform="matrix(2.1106276,0,0,2.1106276,-236.16022,832.73584)"
       inkscape:export-filename="C:\Users\Johnny Lau\Desktop\portforwarding.png"
       inkscape:export-xdpi="90"
       inkscape:export-ydpi="90" />
    <path
       sodipodi:type="arc"
       style="fill:#000000;fill-opacity:1;fill-rule:nonzero;stroke:none"
       id="path3789"
       sodipodi:cx="127.1875"
       sodipodi:cy="92.674683"
       sodipodi:rx="1.2053572"
       sodipodi:ry="1.1160715"
       d="m 128.39286,92.674683 a 1.2053572,1.1160715 0 1 1 -2.41072,0 1.2053572,1.1160715 0 1 1 2.41072,0 z"
       transform="matrix(2.1106276,0,0,2.1106276,-238.23318,835.56245)"
       inkscape:export-filename="C:\Users\Johnny Lau\Desktop\portforwarding.png"
       inkscape:export-xdpi="90"
       inkscape:export-ydpi="90" />
    <path
       d="m 128.39286,92.674683 a 1.2053572,1.1160715 0 1 1 -2.41072,0 1.2053572,1.1160715 0 1 1 2.41072,0 z"
       sodipodi:ry="1.1160715"
       sodipodi:rx="1.2053572"
       sodipodi:cy="92.674683"
       sodipodi:cx="127.1875"
       id="path3791"
       style="fill:#000000;fill-opacity:1;fill-rule:nonzero;stroke:none"
       sodipodi:type="arc"
       transform="matrix(2.1106276,0,0,2.1106276,-225.41865,828.96686)"
       inkscape:export-filename="C:\Users\Johnny Lau\Desktop\portforwarding.png"
       inkscape:export-xdpi="90"
       inkscape:export-ydpi="90" />
    <path
       sodipodi:type="arc"
       style="fill:#fe94c2;fill-opacity:1;fill-rule:nonzero;stroke:none"
       id="path3799"
       sodipodi:cx="141.60715"
       sodipodi:cy="107.71932"
       sodipodi:rx="1.9642857"
       sodipodi:ry="1.4285715"
       d="m 143.57143,107.71932 a 1.9642857,1.4285715 0 1 1 -3.92857,0 1.9642857,1.4285715 0 1 1 3.92857,0 z"
       transform="matrix(4.1994518,-1.704491,2.4723146,2.895233,-820.31724,967.25563)"
       inkscape:export-filename="C:\Users\Johnny Lau\Desktop\portforwarding.png"
       inkscape:export-xdpi="90"
       inkscape:export-ydpi="90" />
    <path
       transform="matrix(1.172571,0,0,1.172571,-111.38613,931.08156)"
       sodipodi:type="arc"
       style="fill:#000000;fill-opacity:1;fill-rule:nonzero;stroke:none"
       id="path3793"
       sodipodi:cx="127.1875"
       sodipodi:cy="92.674683"
       sodipodi:rx="1.2053572"
       sodipodi:ry="1.1160715"
       d="m 128.39286,92.674683 a 1.2053572,1.1160715 0 1 1 -2.41072,0 1.2053572,1.1160715 0 1 1 2.41072,0 z"
       inkscape:export-filename="C:\Users\Johnny Lau\Desktop\portforwarding.png"
       inkscape:export-xdpi="90"
       inkscape:export-ydpi="90" />
    <path
       d="m 128.39286,92.674683 a 1.2053572,1.1160715 0 1 1 -2.41072,0 1.2053572,1.1160715 0 1 1 2.41072,0 z"
       sodipodi:ry="1.1160715"
       sodipodi:rx="1.2053572"
       sodipodi:cy="92.674683"
       sodipodi:cx="127.1875"
       id="path3795"
       style="fill:#000000;fill-opacity:1;fill-rule:nonzero;stroke:none"
       sodipodi:type="arc"
       transform="matrix(1.172571,0,0,1.172571,-105.35576,928.06641)"
       inkscape:export-filename="C:\Users\Johnny Lau\Desktop\portforwarding.png"
       inkscape:export-xdpi="90"
       inkscape:export-ydpi="90" />
    <path
       style="fill:#e180ab;fill-opacity:1;stroke:none"
       d="m 19.867012,1030.4076 c 1.544428,-0.6547 -0.516858,-3.5276 0.148569,-5.0793 0.610135,-1.4231 3.73157,-1.6407 3.381969,-3.155 -0.399786,-1.7316 -2.934301,-2.6675 -4.682834,-2.4802 -1.998684,0.2143 -3.889954,1.7668 -4.915005,3.5089 -0.796516,1.3535 -0.94941,3.5282 0.06501,4.7331 1.400613,1.6635 4.01643,3.3141 6.002178,2.4725 z"
       id="path3813"
       inkscape:connector-curvature="0"
       sodipodi:nodetypes="sssssss"
       inkscape:export-filename="C:\Users\Johnny Lau\Desktop\portforwarding.png"
       inkscape:export-xdpi="90"
       inkscape:export-ydpi="90" />
    <path
       style="fill:#e180ab;fill-opacity:1;stroke:none"
       d="m 37.876233,1014.318 c 1.4382,1.0624 3.634691,-1.2617 5.378592,-0.7837 1.853184,0.5078 2.595471,4.2541 4.400634,3.6056 1.698732,-0.6103 1.414096,-3.5274 0.81496,-5.1734 -0.660522,-1.8149 -2.449696,-3.4999 -4.400669,-3.9192 -2.280487,-0.4906 -5.408615,0.1544 -6.682478,2.0379 -0.80458,1.1901 -0.681605,3.3682 0.488961,4.2328 z"
       id="path3826"
       inkscape:connector-curvature="0"
       sodipodi:nodetypes="sssssss"
       inkscape:export-filename="C:\Users\Johnny Lau\Desktop\portforwarding.png"
       inkscape:export-xdpi="90"
       inkscape:export-ydpi="90" />
    <path
       style="fill:#000000;stroke:#ffffff;stroke-width:2.0564847px;stroke-linecap:butt;stroke-linejoin:miter;stroke-opacity:1"
       d="m 20.036067,1002.3002 c 0.330062,2.5536 3.184277,3.2021 4.805446,5.2636 1.682688,2.1395 1.883498,4.7437 4.489742,5.7478 1.031381,0.3977 2.004431,0.3801 2.6713,-0.4659 1.91927,-2.4353 -0.228534,-5.7007 -1.940868,-8.2472 -1.950803,-2.9012 -3.183748,-4.82055 -6.54372,-5.64033 -1.062519,-0.25906 -1.837865,0.11332 -2.539663,0.9326 -0.871795,1.01563 -1.110211,1.11033 -0.942237,2.40943 z"
       id="path3828"
       inkscape:connector-curvature="0"
       sodipodi:nodetypes="ssssssss"
       inkscape:export-filename="C:\Users\Johnny Lau\Desktop\portforwarding.png"
       inkscape:export-xdpi="90"
       inkscape:export-ydpi="90" />
  </g>
</svg>
